# xmcd CD database file
#
# Track frame offsets:
#	150
#	19730
#	34337
#	46465
#	61502
#	74182
#	88052
#	102540
#	119630
#	138015
#	149450
#	162230
#
# Disc length: 2402 seconds
#
# Revision: 0
# Processed by: cddbd v1.5PL3 Copyright (c) Steve Scherf et al.
# Submitted via: Feurio! 1.67 - http://www.feurio.com
#
DISCID=b109600c
DTITLE=Mattias Ortman - Sanna Lögner
DYEAR=1997
DGENRE=Folk/Pop
TTITLE0=Tonen Av Mitt Hjärta
TTITLE1=Kärlekstramp
TTITLE2=Lång Väg Hem
TTITLE3=Gammal Kärlek
TTITLE4=Det Är För Djävligt
TTITLE5=Ensam Och Stark
TTITLE6=Pengar
TTITLE7=Rå Het Kärlek
TTITLE8=Sanna Lögner
TTITLE9=Löften (Regn, Regn...)
TTITLE10=Mitt Nya Liv
TTITLE11=Kärlekens Detaljer
EXTD=G H M Produktion\r\nB O R G Music International
EXTT0=
EXTT1=
EXTT2=
EXTT3=
EXTT4=
EXTT5=
EXTT6=
EXTT7=
EXTT8=
EXTT9=
EXTT10=
EXTT11=
PLAYORDER=
